<svg width="560" height="600" viewBox="0 0 560 600" fill="none" xmlns="http://www.w3.org/2000/svg">
  <defs>
    <linearGradient id="screen" x1="0" y1="0" x2="1" y2="1">
      <stop offset="0" stop-color="#7C3AED"/>
      <stop offset="0.5" stop-color="#8B5CF6"/>
      <stop offset="1" stop-color="#06B6D4"/>
    </linearGradient>
    <linearGradient id="acc" x1="0" y1="0" x2="1" y2="0">
      <stop offset="0" stop-color="#7C3AED"/>
      <stop offset="1" stop-color="#06B6D4"/>
    </linearGradient>
    <linearGradient id="pinkg" x1="0" y1="0" x2="1" y2="1">
      <stop offset="0" stop-color="#F472B6"/>
      <stop offset="1" stop-color="#F59E0B"/>
    </linearGradient>
    <filter id="soft" x="-30%" y="-30%" width="160%" height="160%">
      <feDropShadow dx="0" dy="24" stdDeviation="30" flood-color="#7C3AED" flood-opacity="0.18"/>
    </filter>
    <filter id="card" x="-40%" y="-40%" width="180%" height="180%">
      <feDropShadow dx="0" dy="14" stdDeviation="22" flood-color="#1B1240" flood-opacity="0.12"/>
    </filter>
  </defs>

  <!-- soft background blobs -->
  <circle cx="430" cy="120" r="120" fill="#7C3AED" opacity="0.10"/>
  <circle cx="110" cy="470" r="140" fill="#06B6D4" opacity="0.10"/>

  <!-- phone -->
  <g filter="url(#soft)" transform="rotate(-5 280 300)">
    <rect x="170" y="70" width="230" height="470" rx="40" fill="#0E1020"/>
    <rect x="182" y="82" width="206" height="446" rx="32" fill="#FFFFFF"/>
    <!-- header -->
    <path d="M182 114 a32 32 0 0 1 32 -32 h142 a32 32 0 0 1 32 32 v66 h-206 z" fill="url(#screen)"/>
    <rect x="232" y="74" width="106" height="14" rx="7" fill="#0E1020"/>
    <circle cx="214" cy="150" r="18" fill="#FFFFFF" opacity="0.9"/>
    <rect x="242" y="140" width="92" height="9" rx="4.5" fill="#FFFFFF" opacity="0.95"/>
    <rect x="242" y="156" width="60" height="8" rx="4" fill="#FFFFFF" opacity="0.6"/>
    <!-- list rows -->
    <g>
      <rect x="202" y="210" width="166" height="46" rx="14" fill="#F3F4FB"/>
      <circle cx="226" cy="233" r="13" fill="url(#acc)"/>
      <rect x="250" y="224" width="92" height="8" rx="4" fill="#1B1240" opacity="0.85"/>
      <rect x="250" y="238" width="58" height="7" rx="3.5" fill="#1B1240" opacity="0.4"/>
    </g>
    <g>
      <rect x="202" y="268" width="166" height="46" rx="14" fill="#F3F4FB"/>
      <circle cx="226" cy="291" r="13" fill="url(#pinkg)"/>
      <rect x="250" y="282" width="80" height="8" rx="4" fill="#1B1240" opacity="0.85"/>
      <rect x="250" y="296" width="64" height="7" rx="3.5" fill="#1B1240" opacity="0.4"/>
    </g>
    <g>
      <rect x="202" y="326" width="166" height="46" rx="14" fill="#F3F4FB"/>
      <circle cx="226" cy="349" r="13" fill="#06B6D4"/>
      <rect x="250" y="340" width="96" height="8" rx="4" fill="#1B1240" opacity="0.85"/>
      <rect x="250" y="354" width="50" height="7" rx="3.5" fill="#1B1240" opacity="0.4"/>
    </g>
    <!-- bottom button -->
    <rect x="202" y="396" width="166" height="44" rx="14" fill="url(#acc)"/>
    <rect x="252" y="414" width="66" height="8" rx="4" fill="#FFFFFF"/>
    <!-- nav bar -->
    <rect x="202" y="470" width="166" height="44" rx="16" fill="#0E1020"/>
    <circle cx="232" cy="492" r="5" fill="url(#acc)"/>
    <circle cx="285" cy="492" r="5" fill="#FFFFFF" opacity="0.4"/>
    <circle cx="338" cy="492" r="5" fill="#FFFFFF" opacity="0.4"/>
  </g>

  <!-- floating card: performance -->
  <g filter="url(#card)" transform="rotate(4 440 200)">
    <rect x="370" y="150" width="170" height="92" rx="20" fill="#FFFFFF"/>
    <circle cx="398" cy="184" r="16" fill="#7C3AED" opacity="0.14"/>
    <path d="M392 184 l4 5 l8 -10" stroke="#7C3AED" stroke-width="3" fill="none" stroke-linecap="round" stroke-linejoin="round"/>
    <rect x="424" y="172" width="92" height="9" rx="4.5" fill="#1B1240" opacity="0.85"/>
    <rect x="424" y="188" width="60" height="8" rx="4" fill="#1B1240" opacity="0.35"/>
    <rect x="386" y="214" width="130" height="8" rx="4" fill="#EEF0F8"/>
    <rect x="386" y="214" width="112" height="8" rx="4" fill="url(#acc)"/>
  </g>

  <!-- floating card: rating -->
  <g filter="url(#card)" transform="rotate(-6 110 360)">
    <rect x="30" y="330" width="150" height="76" rx="20" fill="#FFFFFF"/>
    <text x="50" y="372" font-family="Arial, sans-serif" font-size="26" font-weight="700" fill="#0E1020">35%</text>
    <rect x="50" y="384" width="84" height="8" rx="4" fill="#1B1240" opacity="0.35"/>
    <g transform="translate(120 348)">
      <circle r="20" fill="#06B6D4" opacity="0.12"/>
      <path d="M-8 4 l5 -8 l4 5 l6 -10" stroke="#06B6D4" stroke-width="3" fill="none" stroke-linecap="round" stroke-linejoin="round"/>
    </g>
  </g>

  <!-- decorative dots -->
  <g fill="#7C3AED" opacity="0.5">
    <circle cx="60" cy="120" r="4"/>
    <circle cx="90" cy="120" r="4"/>
    <circle cx="60" cy="150" r="4"/>
    <circle cx="90" cy="150" r="4"/>
  </g>
  <g fill="#06B6D4" opacity="0.5">
    <circle cx="490" cy="430" r="4"/>
    <circle cx="520" cy="430" r="4"/>
    <circle cx="490" cy="460" r="4"/>
    <circle cx="520" cy="460" r="4"/>
  </g>
</svg>
